<svg width="400" height="300" viewBox="0 0 400 300" xmlns="http://www.w3.org/2000/svg">
  <!-- Background -->
  <rect width="400" height="300" fill="#fef2f2"/>
  
  <!-- Header -->
  <rect width="400" height="60" fill="#dc2626" stroke="#b91c1c" stroke-width="1"/>
  
  <!-- Logo placeholder -->
  <circle cx="40" cy="30" r="15" fill="#ffffff"/>
  <text x="65" y="35" font-family="Arial, sans-serif" font-size="14" font-weight="bold" fill="#ffffff">Mars Store</text>
  
  <!-- Navigation -->
  <rect x="200" y="20" width="60" height="20" rx="4" fill="#ef4444"/>
  <rect x="270" y="20" width="60" height="20" rx="4" fill="#ef4444"/>
  <rect x="340" y="20" width="40" height="20" rx="4" fill="#ffffff"/>
  
  <!-- Hero Section -->
  <rect x="20" y="80" width="360" height="120" rx="8" fill="#fed7d7"/>
  <text x="200" y="130" text-anchor="middle" font-family="Arial, sans-serif" font-size="18" font-weight="bold" fill="#991b1b">Mars Template</text>
  <text x="200" y="150" text-anchor="middle" font-family="Arial, sans-serif" font-size="12" fill="#dc2626">Business & Professional</text>
  
  <!-- Sidebar -->
  <rect x="20" y="220" width="100" height="60" rx="4" fill="#ffffff" stroke="#fca5a5" stroke-width="1"/>
  <text x="70" y="240" text-anchor="middle" font-family="Arial, sans-serif" font-size="10" fill="#991b1b">Categories</text>
  
  <!-- Main Content -->
  <rect x="130" y="220" width="250" height="60" rx="4" fill="#ffffff" stroke="#fca5a5" stroke-width="1"/>
  
  <!-- Product grid in main content -->
  <rect x="140" y="230" width="70" height="40" rx="2" fill="#fef2f2"/>
  <rect x="220" y="230" width="70" height="40" rx="2" fill="#fef2f2"/>
  <rect x="300" y="230" width="70" height="40" rx="2" fill="#fef2f2"/>
  
  <!-- Mars planet icon -->
  <circle cx="350" cy="50" r="8" fill="#dc2626" opacity="0.3"/>
  <text x="350" y="55" text-anchor="middle" font-family="Arial, sans-serif" font-size="10" fill="#ffffff">🔴</text>
  
  <!-- Coming Soon Badge -->
  <rect x="320" y="10" width="70" height="20" rx="10" fill="#fbbf24"/>
  <text x="355" y="22" text-anchor="middle" font-family="Arial, sans-serif" font-size="8" font-weight="bold" fill="#92400e">COMING SOON</text>
</svg>
