<svg width="400" height="300" viewBox="0 0 400 300" xmlns="http://www.w3.org/2000/svg">
  <!-- Background -->
  <rect width="400" height="300" fill="#f8fafc"/>
  
  <!-- Header -->
  <rect width="400" height="60" fill="#374151" stroke="#4b5563" stroke-width="1"/>
  
  <!-- Logo placeholder -->
  <circle cx="40" cy="30" r="15" fill="#ffffff"/>
  <text x="65" y="35" font-family="Arial, sans-serif" font-size="14" font-weight="bold" fill="#ffffff">Saturn Tech</text>
  
  <!-- Navigation -->
  <rect x="200" y="20" width="60" height="20" rx="4" fill="#6b7280"/>
  <rect x="270" y="20" width="60" height="20" rx="4" fill="#6b7280"/>
  <rect x="340" y="20" width="40" height="20" rx="4" fill="#ffffff"/>
  
  <!-- Hero Section - Tech Banner -->
  <rect x="20" y="80" width="360" height="120" rx="8" fill="#e5e7eb"/>
  <text x="200" y="130" text-anchor="middle" font-family="Arial, sans-serif" font-size="18" font-weight="bold" fill="#374151">Saturn Template</text>
  <text x="200" y="150" text-anchor="middle" font-family="Arial, sans-serif" font-size="12" fill="#6b7280">Technology & Electronics</text>
  
  <!-- Tech Product Grid with specs -->
  <rect x="20" y="220" width="90" height="60" rx="4" fill="#ffffff" stroke="#d1d5db" stroke-width="1"/>
  <rect x="120" y="220" width="90" height="60" rx="4" fill="#ffffff" stroke="#d1d5db" stroke-width="1"/>
  <rect x="220" y="220" width="90" height="60" rx="4" fill="#ffffff" stroke="#d1d5db" stroke-width="1"/>
  <rect x="320" y="220" width="60" height="60" rx="4" fill="#f3f4f6"/>
  
  <!-- Tech items with specs -->
  <rect x="30" y="230" width="70" height="25" rx="2" fill="#f3f4f6"/>
  <rect x="30" y="260" width="40" height="8" rx="1" fill="#d1d5db"/>
  
  <rect x="130" y="230" width="70" height="25" rx="2" fill="#f3f4f6"/>
  <rect x="130" y="260" width="40" height="8" rx="1" fill="#d1d5db"/>
  
  <rect x="230" y="230" width="70" height="25" rx="2" fill="#f3f4f6"/>
  <rect x="230" y="260" width="40" height="8" rx="1" fill="#d1d5db"/>
  
  <!-- Saturn planet icon -->
  <circle cx="350" cy="50" r="8" fill="#6b7280" opacity="0.3"/>
  <ellipse cx="350" cy="50" rx="12" ry="3" fill="none" stroke="#6b7280" stroke-width="1" opacity="0.3"/>
  <text x="350" y="55" text-anchor="middle" font-family="Arial, sans-serif" font-size="10" fill="#ffffff">🛸</text>
  
  <!-- Coming Soon Badge -->
  <rect x="320" y="10" width="70" height="20" rx="10" fill="#fbbf24"/>
  <text x="355" y="22" text-anchor="middle" font-family="Arial, sans-serif" font-size="8" font-weight="bold" fill="#92400e">COMING SOON</text>
</svg>
